<mxfile host="65bd71144e">
    <diagram id="HWUhP-si5-52SFAlJIHp" name="Page-1">
        <mxGraphModel dx="2743" dy="1895" grid="1" gridSize="10" guides="1" tooltips="1" connect="1" arrows="1" fold="1" page="1" pageScale="1" pageWidth="850" pageHeight="1100" math="0" shadow="0">
            <root>
                <mxCell id="0"/>
                <mxCell id="1" parent="0"/>
                <mxCell id="89" value="" style="group" parent="1" vertex="1" connectable="0">
                    <mxGeometry x="115" y="130" width="310" height="240" as="geometry"/>
                </mxCell>
                <mxCell id="69" value="" style="rounded=1;whiteSpace=wrap;html=1;absoluteArcSize=1;arcSize=14;strokeWidth=2;fillColor=#a20025;fontColor=#ffffff;strokeColor=#6F0000;" parent="89" vertex="1">
                    <mxGeometry width="310" height="240" as="geometry"/>
                </mxCell>
                <mxCell id="70" value="&lt;font color=&quot;#ffffff&quot;&gt;&lt;span style=&quot;font-size: 30px;&quot;&gt;Modul&lt;/span&gt;&lt;/font&gt;" style="text;html=1;align=center;verticalAlign=middle;whiteSpace=wrap;rounded=0;" parent="89" vertex="1">
                    <mxGeometry width="310" height="39" as="geometry"/>
                </mxCell>
                <mxCell id="71" value="" style="html=1;verticalLabelPosition=bottom;align=center;labelBackgroundColor=#ffffff;verticalAlign=top;strokeWidth=2;strokeColor=#FFFFFF;shadow=0;dashed=0;shape=mxgraph.ios7.icons.stopwatch;fillColor=none;" parent="89" vertex="1">
                    <mxGeometry x="10" y="74.79000000000002" width="27" height="28.2" as="geometry"/>
                </mxCell>
                <mxCell id="72" value="" style="endArrow=classic;html=1;exitX=0;exitY=0.5;exitDx=0;exitDy=0;entryX=1;entryY=0.5;entryDx=0;entryDy=0;strokeWidth=6;endFill=1;" parent="89" source="69" target="69" edge="1">
                    <mxGeometry width="50" height="50" relative="1" as="geometry">
                        <mxPoint y="117.99000000000001" as="sourcePoint"/>
                        <mxPoint x="310" y="117.99000000000001" as="targetPoint"/>
                    </mxGeometry>
                </mxCell>
                <mxCell id="73" value="" style="rounded=1;whiteSpace=wrap;html=1;absoluteArcSize=1;arcSize=14;strokeWidth=2;fillColor=#660000;fontColor=#ffffff;strokeColor=#000000;" parent="89" vertex="1">
                    <mxGeometry x="75" y="68.99000000000001" width="130" height="140" as="geometry"/>
                </mxCell>
                <mxCell id="74" value="" style="endArrow=classic;html=1;strokeWidth=6;entryX=0.822;entryY=1;entryDx=0;entryDy=0;entryPerimeter=0;exitX=0.491;exitY=1;exitDx=0;exitDy=0;exitPerimeter=0;" parent="89" source="78" target="69" edge="1">
                    <mxGeometry width="50" height="50" relative="1" as="geometry">
                        <mxPoint x="240" y="210" as="sourcePoint"/>
                        <mxPoint x="290" y="160" as="targetPoint"/>
                    </mxGeometry>
                </mxCell>
                <mxCell id="75" value="" style="edgeStyle=segmentEdgeStyle;endArrow=classic;html=1;curved=0;rounded=0;endSize=8;startSize=8;strokeWidth=6;entryX=0.5;entryY=0;entryDx=0;entryDy=0;" parent="89" target="77" edge="1">
                    <mxGeometry width="50" height="50" relative="1" as="geometry">
                        <mxPoint x="50" y="118.99000000000001" as="sourcePoint"/>
                        <mxPoint x="120" y="38.99000000000001" as="targetPoint"/>
                        <Array as="points">
                            <mxPoint x="50" y="48.99000000000001"/>
                            <mxPoint x="255" y="48.99000000000001"/>
                        </Array>
                    </mxGeometry>
                </mxCell>
                <mxCell id="76" value="" style="group" parent="89" vertex="1" connectable="0">
                    <mxGeometry x="229.5" y="94.49000000000001" width="51" height="51" as="geometry"/>
                </mxCell>
                <mxCell id="77" value="" style="rhombus;whiteSpace=wrap;html=1;strokeColor=#000000;fillColor=#FFFFFF;strokeWidth=2;" parent="76" vertex="1">
                    <mxGeometry width="51" height="51" as="geometry"/>
                </mxCell>
                <mxCell id="78" value="" style="html=1;verticalLabelPosition=bottom;align=center;labelBackgroundColor=#ffffff;verticalAlign=top;strokeWidth=2;strokeColor=#000000;shadow=0;dashed=0;shape=mxgraph.ios7.icons.clock;fillColor=none;" parent="76" vertex="1">
                    <mxGeometry x="10.5" y="10.5" width="30" height="30" as="geometry"/>
                </mxCell>
                <mxCell id="79" value="" style="verticalLabelPosition=bottom;html=1;verticalAlign=top;align=center;strokeColor=none;fillColor=#FFFFFF;shape=mxgraph.azure.code_file;pointerEvents=1;strokeWidth=2;" parent="89" vertex="1">
                    <mxGeometry x="102" y="120" width="76" height="80" as="geometry"/>
                </mxCell>
                <mxCell id="80" value="&lt;font style=&quot;font-size: 20px;&quot; color=&quot;#ffffff&quot;&gt;Run code&lt;/font&gt;" style="text;html=1;align=center;verticalAlign=middle;whiteSpace=wrap;rounded=0;" parent="89" vertex="1">
                    <mxGeometry x="77.5" y="74.78999999999999" width="125" height="39" as="geometry"/>
                </mxCell>
            </root>
        </mxGraphModel>
    </diagram>
</mxfile>